<?xml version="1.0" standalone="no"?>
<!DOCTYPE svg PUBLIC "-//W3C//DTD SVG 20010904//EN"
 "http://www.w3.org/TR/2001/REC-SVG-20010904/DTD/svg10.dtd">
<svg version="1.0" xmlns="http://www.w3.org/2000/svg"
 width="324.000000pt" height="324.000000pt" viewBox="0 0 324.000000 324.000000"
 preserveAspectRatio="xMidYMid meet">

<g transform="translate(0.000000,324.000000) scale(0.100000,-0.100000)"
fill="#000000" stroke="none">
<path d="M1245 3073 c-149 -31 -276 -96 -379 -193 -290 -273 -299 -739 -22
-1219 l54 -94 1 -191 c0 -105 -3 -203 -5 -218 -4 -22 -22 -36 -92 -74 -146
-80 -340 -191 -386 -223 -62 -43 -121 -114 -162 -196 -57 -114 -64 -157 -64
-378 l0 -199 29 -29 c40 -40 89 -40 133 0 l33 29 5 204 5 204 32 64 c18 36 51
84 75 107 39 37 399 253 423 253 6 0 46 -37 90 -81 146 -148 299 -230 473
-254 l52 -7 0 100 0 99 -67 17 c-128 31 -243 101 -332 202 l-40 46 -3 286 -3
287 -72 130 c-88 161 -117 241 -111 313 7 85 77 156 148 150 l35 -3 5 -135 c5
-146 13 -171 60 -195 37 -19 73 -19 110 0 43 22 60 63 60 147 l1 73 38 26 c85
59 131 159 131 283 l0 74 67 -25 c139 -50 316 -70 445 -49 l47 7 3 -193 3
-193 48 -118 c26 -64 47 -122 47 -127 0 -5 -27 -23 -60 -40 -88 -45 -94 -58
-100 -230 l-5 -145 -35 -18 c-31 -15 -60 -17 -250 -14 -118 2 -229 7 -246 11
-25 6 -36 3 -61 -18 -61 -51 -49 -127 27 -166 33 -17 59 -20 159 -20 l120 0
-17 -38 c-15 -33 -17 -81 -17 -417 l0 -380 27 -57 c32 -69 97 -136 163 -169
l50 -24 423 -3 423 -3 58 26 c73 33 132 93 168 170 l28 60 3 274 c3 219 1 276
-10 282 -21 14 -27 11 -42 -24 -18 -43 -68 -100 -112 -127 l-34 -22 0 -159 c0
-178 -7 -208 -59 -252 l-33 -27 -376 0 c-361 0 -378 1 -410 20 -20 13 -41 38
-53 66 -19 42 -20 63 -17 373 l3 328 25 35 c51 75 36 73 500 73 228 0 428 -4
443 -8 40 -11 114 -82 127 -123 8 -24 18 -34 32 -34 19 0 20 4 15 61 -10 115
-89 227 -197 278 -55 26 -57 26 -338 29 l-283 3 3 111 3 111 60 36 c76 46 108
92 102 146 -2 22 -27 102 -56 177 l-51 137 0 199 0 200 49 36 c78 58 157 150
197 231 47 94 51 151 14 190 -24 27 -27 27 -100 19 -121 -14 -278 -10 -365 9
-45 9 -141 35 -215 58 -74 22 -175 49 -225 60 -109 23 -269 24 -370 2z"/>
<path d="M2718 1042 c-10 -4 -59 -48 -110 -97 -51 -50 -144 -139 -205 -199
l-112 -109 -90 86 c-84 81 -93 87 -131 87 -59 0 -100 -42 -100 -101 0 -41 4
-47 127 -171 142 -143 174 -161 235 -134 18 8 143 122 278 254 l245 239 0 46
c0 37 -6 52 -26 72 -26 27 -81 40 -111 27z"/>
</g>
</svg>
