<?xml version="1.0" standalone="no"?>
<!DOCTYPE svg PUBLIC "-//W3C//DTD SVG 20010904//EN"
 "http://www.w3.org/TR/2001/REC-SVG-20010904/DTD/svg10.dtd">
<svg version="1.0" xmlns="http://www.w3.org/2000/svg"
 width="324.000000pt" height="324.000000pt" viewBox="0 0 324.000000 324.000000"
 preserveAspectRatio="xMidYMid meet">

<g transform="translate(0.000000,324.000000) scale(0.100000,-0.100000)"
fill="#000000" stroke="none">
<path d="M406 3145 c-53 -19 -85 -44 -121 -94 l-30 -43 -5 -336 -5 -337 -57
-115 c-62 -128 -107 -260 -135 -395 -27 -137 -25 -444 5 -581 30 -141 84 -290
149 -416 54 -103 135 -217 161 -226 9 -3 12 220 12 1092 l0 1095 22 15 c20 14
153 16 1230 16 1084 0 1208 -2 1222 -16 14 -14 16 -125 16 -1074 l0 -1060 26
-17 c26 -17 27 -17 51 12 42 53 131 217 167 311 163 422 142 865 -60 1267
l-54 107 0 318 c0 286 -2 321 -19 358 -24 53 -91 109 -146 123 -31 8 -393 11
-1217 11 -981 -1 -1179 -3 -1212 -15z m231 -127 c13 -12 23 -30 23 -40 0 -23
-43 -68 -65 -68 -21 0 -65 44 -65 65 0 21 45 65 66 65 10 0 28 -10 41 -22z
m243 2 c42 -42 7 -119 -48 -105 -40 10 -52 24 -52 61 0 56 61 83 100 44z m249
-6 c12 -15 21 -33 21 -41 0 -19 -45 -63 -65 -63 -23 0 -65 45 -65 70 0 27 35
60 64 60 15 0 33 -11 45 -26z"/>
<path d="M1513 2646 c-124 -30 -248 -129 -298 -238 -35 -76 -39 -143 -20 -303
27 -231 57 -315 142 -407 l46 -49 -30 -42 -31 -42 -368 -5 c-401 -5 -399 -5
-434 -63 -19 -31 -20 -55 -20 -539 l0 -508 -97 0 c-114 0 -143 -11 -160 -60
-36 -102 38 -190 158 -190 l53 0 -41 35 c-22 19 -43 44 -46 55 -5 20 -4 20
901 21 499 1 924 0 945 -1 52 -2 48 15 -21 83 l-58 57 -752 0 -752 0 2 483 3
482 300 5 c165 3 302 4 304 3 2 -1 -69 -38 -158 -83 -89 -44 -179 -96 -200
-116 -65 -58 -71 -90 -71 -380 0 -139 3 -260 6 -269 17 -45 24 -45 729 -45
l666 0 70 -67 c61 -59 69 -71 64 -95 -5 -19 -1 -32 14 -47 14 -14 21 -34 21
-58 0 -86 50 -181 121 -233 l42 -30 159 0 158 0 46 42 c115 106 141 247 70
386 -13 26 -39 61 -58 79 -37 35 -116 77 -165 88 -26 5 -33 12 -33 29 0 24
-28 56 -48 56 -6 0 -61 51 -122 112 l-110 113 0 95 c0 188 -25 220 -263 335
-91 44 -166 82 -166 85 -1 6 567 3 592 -4 16 -4 17 -26 17 -278 l0 -274 63
-62 c34 -34 65 -62 67 -62 3 0 4 165 3 366 -2 398 -2 393 -60 431 -24 16 -66
19 -396 23 l-369 5 -30 42 -31 42 53 58 c55 60 89 124 108 203 20 82 44 324
39 388 -19 239 -293 411 -554 348z m219 -126 c21 -6 40 -15 44 -21 10 -17 -64
-86 -118 -109 -34 -15 -70 -21 -123 -21 -74 0 -175 23 -175 41 0 17 109 92
152 105 52 16 169 19 220 5z m195 -166 c33 -72 23 -81 -16 -12 -33 58 -37 68
-20 68 5 0 22 -25 36 -56z m-118 -93 c17 -28 51 -62 77 -78 l45 -28 -6 -70
c-8 -88 -30 -187 -50 -225 -84 -162 -277 -208 -415 -99 -70 55 -106 134 -126
276 l-15 112 48 47 48 46 115 2 c107 1 119 3 180 33 36 17 65 32 66 32 0 1 15
-21 33 -48z m-274 -677 c78 -22 166 -14 248 21 16 7 18 3 15 -26 -3 -31 -10
-38 -86 -81 -94 -54 -80 -56 -204 19 -50 30 -58 39 -58 65 0 25 3 29 18 23 9
-4 39 -14 67 -21z m-54 -199 c58 -38 99 -71 96 -78 -2 -7 -17 -83 -32 -169
-16 -87 -31 -155 -35 -153 -4 3 -11 17 -14 32 -4 16 -34 111 -67 211 -55 170
-67 222 -54 222 3 0 51 -29 106 -65z m399 22 c-5 -17 -14 -51 -20 -74 -7 -30
-16 -43 -28 -43 -25 0 -62 -28 -71 -54 -5 -11 -5 -59 -1 -105 6 -73 -4 -170
-17 -157 -5 5 -63 312 -63 335 0 18 186 144 201 136 4 -3 4 -20 -1 -38z m115
-297 l80 -30 242 -242 243 -243 -57 -57 -56 -57 -266 261 -266 260 -11 69 c-8
50 -8 69 0 69 6 0 47 -13 91 -30z m803 -673 c105 -69 114 -229 18 -302 -125
-95 -312 -6 -311 150 1 85 8 85 94 1 85 -82 114 -93 151 -56 37 37 26 66 -55
149 -41 43 -75 81 -75 85 0 5 31 7 69 4 53 -3 77 -9 109 -31z"/>
<path d="M539 2552 c-15 -13 -22 -30 -22 -52 0 -22 7 -39 22 -52 21 -16 44
-18 223 -18 198 0 199 0 223 25 30 30 31 54 4 89 l-20 26 -204 0 c-182 0 -205
-2 -226 -18z"/>
<path d="M2269 2552 c-15 -13 -22 -30 -22 -52 0 -22 7 -39 22 -52 21 -16 44
-18 223 -18 198 0 199 0 223 25 14 13 25 34 25 45 0 12 -11 32 -25 45 -24 25
-25 25 -223 25 -179 0 -202 -2 -223 -18z"/>
<path d="M557 2283 c-23 -6 -49 -57 -40 -80 18 -52 22 -53 244 -53 l208 0 20
26 c27 35 26 59 -4 89 -24 25 -25 25 -217 24 -106 -1 -201 -3 -211 -6z"/>
<path d="M2281 2277 c-37 -19 -48 -63 -24 -96 l20 -26 211 -3 210 -2 22 27
c25 32 20 68 -12 96 -18 15 -44 17 -212 17 -132 0 -199 -4 -215 -13z"/>
<path d="M539 1842 c-15 -13 -22 -30 -22 -52 0 -22 7 -39 22 -52 21 -16 44
-18 223 -18 198 0 199 0 223 25 30 30 31 54 4 89 l-20 26 -204 0 c-182 0 -205
-2 -226 -18z"/>
<path d="M2269 1842 c-15 -13 -22 -30 -22 -52 0 -22 7 -39 22 -52 21 -16 44
-18 223 -18 198 0 199 0 223 25 14 13 25 34 25 45 0 11 -11 32 -25 45 -24 25
-25 25 -223 25 -179 0 -202 -2 -223 -18z"/>
<path d="M917 198 c-16 -10 94 -58 218 -97 361 -111 807 -89 1132 54 43 20 54
28 45 37 -9 9 -184 12 -698 13 -377 0 -691 -3 -697 -7z"/>
</g>
</svg>
