<?xml version="1.0" standalone="no"?>
<!DOCTYPE svg PUBLIC "-//W3C//DTD SVG 20010904//EN"
 "http://www.w3.org/TR/2001/REC-SVG-20010904/DTD/svg10.dtd">
<svg version="1.0" xmlns="http://www.w3.org/2000/svg"
 width="130.000000pt" height="130.000000pt" viewBox="0 0 130.000000 130.000000"
 preserveAspectRatio="xMidYMid meet">

<g transform="translate(0.000000,130.000000) scale(0.100000,-0.100000)"
fill="#000000" stroke="none">
<path d="M600 1228 c-25 -13 -54 -37 -65 -55 l-20 -32 -163 -1 c-176 0 -204
-7 -236 -54 -14 -22 -16 -71 -16 -430 l0 -404 26 -31 25 -31 182 -2 182 -3 0
-40 0 -40 -49 -5 c-58 -6 -76 -25 -58 -64 l12 -26 244 0 c266 0 271 1 264 57
-3 27 -6 28 -60 31 l-58 3 0 38 0 38 92 7 c50 3 130 6 178 6 83 0 87 1 116 31
l29 30 3 405 3 406 -39 39 -40 39 -166 0 -165 0 -16 29 c-37 72 -129 98 -205
59z m105 -98 c24 -27 13 -68 -22 -76 -34 -9 -57 6 -61 42 -6 49 49 72 83 34z
m-150 -125 c68 -73 156 -74 227 -3 l41 41 138 5 c103 4 143 2 154 -8 13 -10
15 -50 15 -251 l0 -239 -217 0 -218 0 120 114 120 114 46 -45 c58 -55 83 -55
87 1 3 36 -1 44 -54 98 -36 35 -67 58 -80 58 -14 0 -52 -30 -106 -82 -85 -84
-136 -128 -149 -128 -4 0 -50 41 -103 90 -52 50 -101 90 -107 90 -6 0 -43 -30
-82 -67 -119 -113 -122 -118 -87 -153 25 -25 33 -21 111 49 l56 50 99 -94 99
-94 -237 -1 -238 0 0 240 c0 217 2 240 17 249 10 5 83 9 163 9 l145 0 40 -43z
m535 -566 c-25 -5 -137 -12 -250 -15 -113 -4 -212 -10 -220 -14 -8 -5 -23 -4
-34 2 -18 10 -279 15 -316 6 -8 -1 -19 -16 -25 -33 -7 -20 -17 -30 -30 -30
-17 0 -20 8 -23 48 l-3 47 473 -1 c305 -1 457 -5 428 -10z m-447 -309 c3 -13
0 -20 -9 -20 -8 0 -14 10 -14 26 0 28 15 25 23 -6z"/>
<path d="M910 661 c0 -24 5 -29 30 -33 36 -5 40 -3 40 34 0 25 -3 28 -35 28
-32 0 -35 -3 -35 -29z"/>
</g>
</svg>
