<?xml version="1.0" standalone="no"?>
<!DOCTYPE svg PUBLIC "-//W3C//DTD SVG 20010904//EN"
 "http://www.w3.org/TR/2001/REC-SVG-20010904/DTD/svg10.dtd">
<svg version="1.0" xmlns="http://www.w3.org/2000/svg"
 width="324.000000pt" height="324.000000pt" viewBox="0 0 324.000000 324.000000"
 preserveAspectRatio="xMidYMid meet">

<g transform="translate(0.000000,324.000000) scale(0.100000,-0.100000)"
fill="#000000" stroke="none">
<path d="M1505 3083 c-366 -30 -717 -187 -961 -428 -322 -317 -485 -806 -418
-1252 14 -97 46 -227 74 -298 l12 -30 17 55 c10 30 25 66 34 80 15 24 15 32
-5 125 -31 146 -31 398 1 545 119 553 513 938 1085 1062 145 32 419 31 556 0
l95 -22 74 37 73 38 -33 13 c-56 23 -238 60 -348 72 -99 10 -169 11 -256 3z"/>
<path d="M2290 2914 c-131 -35 -171 -66 -461 -354 -121 -120 -164 -169 -187
-215 -33 -67 -52 -144 -52 -210 0 -43 -1 -44 -173 -210 l-174 -168 -94 -2
c-186 -5 -239 -38 -530 -332 -194 -196 -231 -237 -257 -293 -40 -84 -51 -137
-52 -230 0 -137 47 -252 145 -358 107 -116 218 -170 370 -179 105 -6 181 9
275 57 48 24 106 75 261 227 110 108 218 223 239 256 48 72 80 170 80 246 l0
56 188 188 189 188 60 -6 c85 -10 191 10 276 53 59 30 102 66 268 230 109 107
212 216 230 243 76 119 102 293 64 425 -55 190 -206 339 -395 389 -69 19 -199
18 -270 -1z m278 -244 c139 -70 208 -215 167 -356 -16 -57 -24 -67 -224 -264
-137 -136 -221 -212 -249 -224 -23 -11 -44 -17 -47 -15 -2 3 2 27 10 54 43
142 -18 275 -142 311 -117 34 -161 8 -443 -267 l-231 -227 -45 25 c-25 14 -44
28 -42 32 8 18 478 471 489 471 6 0 114 101 238 225 255 252 273 264 387 265
59 0 81 -5 132 -30z m-560 -778 c-10 -105 -35 -141 -225 -330 -96 -95 -188
-179 -205 -188 -43 -22 -280 -45 -297 -29 -2 3 2 11 8 19 9 10 24 13 44 10
l32 -5 -35 19 c-77 42 -163 36 -223 -18 -29 -26 -32 -34 -32 -87 0 -74 28
-116 99 -149 57 -27 160 -32 229 -13 22 6 41 8 44 5 3 -3 0 -20 -8 -38 -19
-46 -433 -455 -484 -479 -56 -26 -165 -25 -225 2 -98 44 -160 116 -185 216
-18 69 -8 145 24 197 11 17 118 129 238 248 183 182 227 221 276 243 91 40
154 42 277 10 162 -41 140 -54 501 301 69 68 132 124 139 124 10 0 11 -14 8
-58z"/>
<path d="M1060 2435 c-30 -30 -57 -55 -61 -55 -4 0 -27 18 -50 40 -51 48 -88
52 -124 15 -37 -37 -32 -68 21 -125 50 -54 50 -60 -3 -104 -43 -36 -57 -79
-35 -105 15 -18 35 -20 209 -27 192 -7 193 -6 201 15 13 35 -36 373 -56 389
-28 21 -46 13 -102 -43z"/>
<path d="M2989 2015 l-36 -73 19 -73 c29 -110 36 -336 13 -470 -52 -311 -166
-539 -375 -749 -243 -244 -550 -385 -910 -415 -99 -9 -279 10 -408 41 l-104
26 -51 -21 c-29 -12 -67 -24 -85 -27 -44 -9 -34 -16 69 -52 177 -62 273 -77
499 -77 178 0 219 3 309 23 438 98 802 362 1004 728 186 336 236 736 137 1101
-32 121 -38 124 -81 38z"/>
<path d="M2042 1153 c-10 -18 28 -369 43 -392 3 -6 18 -11 33 -11 20 0 43 15
82 55 l54 54 47 -44 c56 -53 93 -59 129 -21 36 39 29 71 -26 127 l-48 49 48
47 c61 61 68 73 53 104 -15 28 -39 33 -259 43 -136 7 -147 6 -156 -11z"/>
</g>
</svg>
