<?xml version="1.0" standalone="no"?>
<!DOCTYPE svg PUBLIC "-//W3C//DTD SVG 20010904//EN"
 "http://www.w3.org/TR/2001/REC-SVG-20010904/DTD/svg10.dtd">
<svg version="1.0" xmlns="http://www.w3.org/2000/svg"
 width="324.000000pt" height="324.000000pt" viewBox="0 0 324.000000 324.000000"
 preserveAspectRatio="xMidYMid meet">

<g transform="translate(0.000000,324.000000) scale(0.100000,-0.100000)"
fill="#000000" stroke="none">
<path d="M1018 3238 c-1 -2 -4 -141 -8 -310 l-5 -308 -25 -24 -25 -25 -285 -6
c-304 -7 -356 -14 -436 -61 -97 -57 -175 -174 -194 -291 -6 -32 -10 -230 -10
-439 0 -327 -2 -383 -15 -394 -22 -18 -22 -245 0 -236 13 5 15 -45 15 -412 0
-260 4 -441 11 -478 15 -79 50 -152 102 -208 l43 -46 1436 0 1435 0 47 50 c26
28 59 76 74 108 l27 57 3 463 c2 397 5 462 17 462 22 0 22 232 0 250 -13 11
-15 70 -15 422 0 387 -1 412 -21 470 -38 114 -106 189 -219 242 l-65 31 -245
6 c-135 4 -273 7 -308 8 -53 1 -67 5 -87 26 l-25 24 0 288 c0 158 -3 298 -6
311 -6 20 -12 22 -85 22 -73 0 -79 -2 -84 -22 -3 -13 -5 -175 -3 -360 l3 -338
33 -32 32 -33 200 -5 199 -5 41 -40 41 -40 128 -5 c118 -5 130 -7 169 -33 55
-36 100 -99 107 -150 3 -23 5 -176 3 -340 l-3 -298 -152 121 -153 121 75 65
c83 72 95 89 95 132 0 66 -81 113 -134 78 -42 -27 -220 -188 -238 -215 -20
-30 -23 -96 -5 -127 15 -25 52 -58 230 -203 75 -62 137 -116 137 -121 0 -22
-74 -89 -123 -111 l-52 -24 -1065 0 c-1011 0 -1068 1 -1118 19 -50 17 -110 65
-130 103 -8 15 16 39 149 147 193 157 218 183 225 227 10 60 -16 99 -131 200
-136 119 -146 125 -197 109 -31 -9 -43 -19 -54 -46 -24 -56 -6 -91 82 -164 41
-34 74 -66 72 -70 -4 -12 -291 -240 -301 -240 -5 0 -7 145 -5 323 3 307 4 324
24 362 12 22 35 53 50 69 52 51 80 60 216 66 l127 5 41 40 41 40 194 5 c176 5
196 7 222 26 48 36 52 63 52 404 1 173 -2 325 -5 338 -6 20 -12 22 -85 22 -44
0 -80 -1 -81 -2z m-778 -1996 c0 -18 99 -106 145 -130 106 -53 68 -52 1235
-52 1185 0 1144 -2 1253 57 27 15 71 51 98 81 l49 54 0 -477 c0 -381 -3 -482
-14 -509 -19 -46 -72 -104 -120 -129 l-41 -22 -1225 0 -1225 0 -48 28 c-60 35
-102 93 -116 158 -14 66 -15 949 -1 949 6 0 10 -4 10 -8z"/>
<path d="M606 889 c-54 -13 -98 -42 -145 -95 -109 -124 -100 -325 19 -444 83
-83 56 -79 672 -80 461 -1 551 1 581 14 51 21 125 92 155 151 24 44 27 62 27
145 0 84 -3 102 -28 152 -30 61 -74 105 -140 140 -42 23 -43 23 -572 25 -302
1 -547 -3 -569 -8z m1062 -179 c103 -63 92 -220 -20 -265 -33 -13 -107 -15
-502 -15 -462 0 -463 0 -506 23 -103 54 -107 196 -8 257 32 19 52 20 518 20
466 0 486 -1 518 -20z"/>
<path d="M690 659 c-41 -9 -58 -26 -66 -66 -5 -27 -1 -37 24 -63 l30 -30 472
0 472 0 30 30 c25 26 29 36 24 63 -4 18 -15 41 -26 52 -19 18 -37 19 -474 20
-250 0 -469 -3 -486 -6z"/>
<path d="M2423 865 c-62 -27 -74 -106 -22 -149 27 -23 39 -26 107 -26 97 0
136 -20 152 -79 12 -45 2 -82 -32 -119 -19 -19 -32 -22 -95 -22 -53 0 -84 -5
-112 -20 -59 -30 -69 -94 -22 -141 28 -28 33 -29 124 -29 57 0 111 6 136 15
93 32 161 113 188 220 15 60 15 70 0 130 -27 111 -93 185 -191 218 -60 21
-188 22 -233 2z"/>
<path d="M2099 631 c-20 -20 -29 -39 -29 -61 0 -22 9 -41 29 -61 27 -26 36
-29 94 -29 56 0 70 4 96 26 24 20 31 34 31 62 -1 66 -38 92 -130 92 -55 0 -65
-3 -91 -29z"/>
<path d="M1338 3208 c-23 -33 -23 -35 -28 -433 l-5 -400 -225 -2 c-147 -2
-233 -7 -247 -15 -26 -13 -47 -68 -38 -97 6 -21 722 -707 759 -728 36 -21 119
-16 152 9 26 20 551 517 692 654 44 43 52 57 52 88 0 26 -7 44 -25 61 l-24 25
-231 0 -230 0 0 378 c-1 394 -4 427 -46 473 -16 18 -33 19 -275 19 l-258 0
-23 -32z m396 -138 c13 -13 15 -77 18 -410 3 -364 4 -398 21 -424 30 -46 74
-57 203 -54 63 2 114 0 114 -3 0 -4 -17 -21 -37 -39 -21 -18 -125 -116 -230
-217 -106 -102 -197 -183 -202 -181 -5 1 -112 100 -239 220 l-230 216 132 4
c217 6 206 -20 206 480 0 396 1 406 40 422 32 12 189 1 204 -14z"/>
<path d="M942 1700 c-21 -13 -35 -31 -38 -50 -12 -60 -1 -96 38 -120 40 -24
60 -25 103 -5 36 18 55 51 55 96 0 41 -15 66 -50 84 -39 20 -69 19 -108 -5z"/>
<path d="M2178 1691 c-28 -25 -33 -36 -33 -75 0 -64 37 -101 101 -101 39 0 50
5 75 33 42 46 40 93 -5 138 -45 45 -92 47 -138 5z"/>
</g>
</svg>
