<?xml version="1.0" standalone="no"?>
<!DOCTYPE svg PUBLIC "-//W3C//DTD SVG 20010904//EN"
 "http://www.w3.org/TR/2001/REC-SVG-20010904/DTD/svg10.dtd">
<svg version="1.0" xmlns="http://www.w3.org/2000/svg"
 width="324.000000pt" height="324.000000pt" viewBox="0 0 324.000000 324.000000"
 preserveAspectRatio="xMidYMid meet">

<g transform="translate(0.000000,324.000000) scale(0.100000,-0.100000)"
fill="#000000" stroke="none">
<path d="M539 2811 c-62 -19 -111 -57 -136 -106 -9 -16 -68 -273 -131 -570
-111 -516 -116 -546 -119 -680 -4 -132 -3 -143 20 -185 31 -58 93 -105 157
-119 28 -6 100 -11 160 -11 l110 0 0 -165 0 -165 -42 0 c-71 0 -120 -19 -164
-64 -74 -73 -83 -173 -23 -256 56 -77 69 -80 436 -80 177 0 333 4 346 9 35 14
95 69 114 104 25 48 19 129 -11 182 -40 68 -99 98 -203 103 l-84 5 2 163 1
164 649 0 649 0 0 -165 0 -165 -63 0 c-89 0 -149 -23 -192 -73 -65 -75 -70
-170 -14 -247 56 -77 69 -80 435 -80 315 0 322 0 364 23 24 12 57 40 74 61 28
35 31 44 31 111 0 65 -3 78 -30 116 -39 55 -93 82 -172 87 l-63 4 0 164 0 164
110 0 c137 0 200 13 253 54 69 52 91 103 95 221 3 85 -1 125 -32 270 -159 763
-208 990 -217 1008 -6 12 -28 39 -48 60 -67 70 -14 67 -1185 66 -578 0 -1063
-4 -1077 -8z m2139 -171 c12 -12 22 -22 22 -24 0 -4 112 -555 160 -784 45
-217 46 -234 24 -256 -14 -14 -142 -16 -1264 -16 l-1250 0 -15 24 c-14 22 -8
57 89 532 90 439 108 511 126 526 21 17 83 18 1054 18 1025 0 1032 0 1054 -20z
m-1075 -1238 c734 -1 1262 1 1280 7 18 5 40 12 50 16 14 6 17 2 17 -28 0 -49
-8 -65 -41 -82 -24 -13 -203 -15 -1299 -15 l-1271 0 -24 25 c-19 18 -25 35
-25 69 l0 44 33 -16 c29 -16 136 -17 1280 -20z m-774 -488 c-1 -197 1 -229 15
-243 13 -13 43 -17 141 -19 111 -3 126 -6 135 -23 7 -13 7 -25 1 -37 -9 -17
-30 -19 -207 -25 -276 -10 -382 -9 -405 3 -12 7 -19 21 -19 40 0 41 23 50 133
50 107 0 118 6 123 68 2 20 3 121 3 225 l1 187 40 0 41 0 -2 -226z m1671 3 c0
-175 3 -227 14 -242 12 -17 30 -20 121 -23 101 -4 107 -6 118 -29 22 -50 8
-52 -314 -60 l-296 -6 -16 24 c-22 30 -21 35 3 59 18 18 33 20 137 20 94 0
120 3 135 17 16 15 18 36 18 240 l0 223 40 0 40 0 0 -223z"/>
<path d="M962 2618 c-9 -9 -12 -61 -12 -190 l0 -178 -100 0 -100 0 0 123 c0
144 -9 170 -60 175 -54 5 -60 -12 -60 -165 0 -82 -4 -133 -10 -133 -21 0 -50
-41 -50 -70 0 -24 7 -35 30 -48 27 -15 30 -22 30 -69 0 -39 -4 -53 -14 -53
-23 0 -57 -50 -50 -74 14 -51 34 -56 215 -56 l169 0 0 -55 0 -55 -168 0 c-191
0 -212 -6 -212 -64 0 -63 12 -66 244 -66 206 0 207 0 231 25 23 22 25 32 25
119 0 69 4 97 14 103 39 23 42 94 5 114 -15 8 -19 21 -19 64 0 45 4 58 26 80
30 30 27 70 -6 94 -18 12 -20 26 -20 175 0 187 -7 209 -60 214 -19 2 -41 -3
-48 -10z m-12 -553 l0 -55 -100 0 -100 0 0 55 0 55 100 0 100 0 0 -55z"/>
<path d="M1250 2614 c-10 -11 -13 -58 -11 -182 l2 -167 -30 -23 c-24 -18 -31
-30 -31 -58 0 -28 6 -38 30 -52 26 -15 30 -22 30 -64 0 -40 -4 -49 -30 -68
-23 -17 -30 -29 -30 -56 0 -28 6 -38 30 -52 26 -15 30 -22 30 -64 0 -40 -4
-49 -30 -68 -23 -17 -30 -29 -30 -55 0 -65 -1 -65 427 -65 370 0 384 1 403 20
11 11 20 33 20 48 0 16 -9 37 -20 47 -16 14 -20 31 -20 77 0 32 4 58 10 58 5
0 17 11 26 25 14 21 14 30 4 54 -6 16 -18 32 -26 35 -21 8 -20 122 1 130 35
13 35 96 -1 110 -11 4 -14 36 -14 168 0 187 -7 211 -58 216 -60 6 -62 -2 -62
-197 l0 -176 -33 -15 c-28 -13 -32 -20 -32 -55 0 -35 4 -42 32 -55 31 -14 33
-18 33 -67 l0 -53 -100 0 -100 0 0 51 c0 36 6 58 20 76 11 14 20 38 20 53 0
15 -9 35 -20 45 -19 17 -20 31 -20 191 0 190 -4 204 -60 204 -56 0 -60 -14
-60 -206 l0 -174 -94 0 c-76 0 -95 3 -100 16 -3 9 -6 89 -6 178 0 113 -4 166
-12 174 -17 17 -73 15 -88 -4z m300 -549 l0 -56 -96 3 -96 3 -2 53 -1 52 97 0
98 0 0 -55z m0 -240 l0 -56 -97 3 -98 3 -3 53 -3 52 100 0 101 0 0 -55z m320
0 l0 -55 -100 0 -100 0 0 55 0 55 100 0 100 0 0 -55z"/>
<path d="M2170 2611 c-6 -11 -10 -91 -10 -189 l0 -169 -25 -11 c-45 -21 -45
-93 1 -114 21 -10 24 -18 24 -64 0 -44 -3 -54 -21 -59 -47 -15 -50 -98 -4
-115 22 -9 25 -15 25 -65 0 -30 -4 -55 -10 -55 -19 0 -50 -40 -50 -65 0 -14 9
-34 20 -45 19 -19 33 -20 263 -20 273 0 287 3 287 64 0 32 -25 66 -48 66 -8 0
-12 19 -12 53 0 47 3 54 30 69 24 14 30 24 30 51 0 33 -24 67 -48 67 -8 0 -12
20 -12 55 0 30 5 55 10 55 20 0 50 41 50 68 0 29 -26 62 -48 62 -9 0 -12 38
-12 134 0 148 -6 166 -59 166 -48 0 -56 -20 -59 -167 l-4 -133 -104 0 -104 0
0 173 c0 156 -2 176 -18 190 -26 24 -79 22 -92 -2z m320 -546 l0 -55 -105 0
-105 0 0 55 0 55 105 0 105 0 0 -55z m0 -240 l0 -55 -105 0 -105 0 0 55 0 55
105 0 105 0 0 -55z"/>
</g>
</svg>
