<?xml version="1.0" standalone="no"?>
<!DOCTYPE svg PUBLIC "-//W3C//DTD SVG 20010904//EN"
 "http://www.w3.org/TR/2001/REC-SVG-20010904/DTD/svg10.dtd">
<svg version="1.0" xmlns="http://www.w3.org/2000/svg"
 width="324.000000pt" height="324.000000pt" viewBox="0 0 324.000000 324.000000"
 preserveAspectRatio="xMidYMid meet">

<g transform="translate(0.000000,324.000000) scale(0.100000,-0.100000)"
fill="#000000" stroke="none">
<path d="M2531 2835 c-18 -8 -99 -79 -180 -158 -202 -197 -179 -181 -232 -157
-55 25 -122 25 -176 0 -23 -10 -97 -70 -164 -132 -67 -62 -184 -168 -258 -236
-75 -68 -144 -139 -154 -158 -36 -70 -227 -513 -227 -527 0 -33 23 -35 259
-16 l233 18 116 -69 c106 -65 119 -70 171 -70 37 0 66 6 86 19 52 32 265 232
282 265 12 23 18 66 21 160 l4 130 112 105 c325 310 443 426 458 455 22 39 23
115 3 164 -21 48 -149 179 -200 203 -48 22 -108 24 -154 4z m172 -184 c37 -38
67 -74 67 -80 0 -6 -20 -29 -45 -52 -25 -23 -42 -46 -38 -52 4 -6 22 8 45 34
21 24 38 39 38 34 0 -6 -18 -28 -39 -49 l-39 -38 -97 93 -96 93 43 43 c61 62
80 59 161 -26z m-223 -164 c30 -33 45 -55 34 -49 -12 6 -25 8 -29 4 -5 -4 -5
-2 -1 5 10 18 -10 25 -24 8 -10 -12 -10 -19 1 -32 12 -17 12 -17 -6 -1 -18 17
-18 18 0 38 10 11 16 23 13 26 -3 3 -15 -6 -25 -20 -11 -14 -28 -23 -39 -22
-33 5 -64 -15 -65 -43 -1 -17 -3 -20 -6 -8 -6 22 -17 22 -34 0 -8 -9 -9 -14
-3 -10 6 3 11 0 11 -7 0 -8 -8 -11 -19 -8 -16 4 -18 -3 -20 -59 l-1 -64 -6 60
c-3 33 -10 66 -14 73 -6 9 17 37 75 92 45 44 88 79 93 78 6 0 35 -27 65 -61z
m-381 -95 c31 -23 45 -63 37 -105 -9 -47 -219 -237 -279 -252 -70 -18 -108
-46 -136 -100 -14 -27 -27 -52 -28 -54 -2 -2 -32 27 -69 65 l-65 69 43 40 c24
22 104 97 178 166 144 135 183 169 215 188 25 14 72 6 104 -17z m471 0 c0 -11
-12 -24 -50 -57 -32 -27 -33 -27 -11 -3 13 14 20 31 17 37 -4 5 -1 13 5 16 5
4 8 13 5 21 -4 12 -2 12 14 4 11 -6 20 -14 20 -18z m-104 -34 c10 -12 13 -18
5 -13 -11 6 -13 4 -8 -8 3 -10 3 -17 -2 -17 -16 0 -21 13 -10 27 9 9 8 13 0
13 -6 0 -14 -7 -17 -15 -4 -8 -10 -15 -16 -15 -6 0 20 47 28 50 0 0 9 -10 20
-22z m-92 -27 c-5 -6 -34 20 -34 30 0 5 8 1 18 -8 10 -10 17 -20 16 -22z m42
-49 c-2 -9 -6 -16 -9 -14 -4 1 -15 2 -24 2 -17 1 -17 1 0 11 9 6 15 14 12 20
-3 5 1 6 8 3 8 -3 14 -13 13 -22z m35 -13 c-38 -33 -53 -39 -28 -11 10 10 14
22 10 26 -4 4 0 4 9 1 9 -4 18 0 22 11 4 9 10 14 14 10 3 -4 -9 -20 -27 -37z
m-154 -31 c-3 -8 -6 -5 -6 6 -1 11 2 17 5 13 3 -3 4 -12 1 -19z m103 -13 c0
-8 -75 -74 -79 -70 -2 3 12 20 30 38 32 32 49 43 49 32z m-159 -38 c-6 -8 -9
-23 -5 -33 4 -14 3 -16 -4 -5 -8 11 -17 6 -47 -25 -21 -22 -32 -30 -26 -19 6
11 26 36 46 55 19 19 35 38 35 44 0 5 3 6 6 3 4 -4 2 -13 -5 -20z m44 -37 c-3
-5 -11 -10 -16 -10 -6 0 -7 5 -4 10 3 6 11 10 16 10 6 0 7 -4 4 -10z m-20 -60
c-48 -47 -65 -58 -65 -42 0 4 14 15 31 25 19 11 29 23 26 32 -4 9 -1 12 8 8 8
-3 18 2 21 11 3 9 11 16 18 16 6 0 -11 -22 -39 -50z m-85 -43 c0 -4 -20 -6
-45 -5 -25 1 -42 4 -36 7 13 9 81 7 81 -2z m0 -251 c0 -144 10 -125 -133 -250
-126 -111 -123 -111 -286 -5 l-124 81 44 44 c47 48 60 52 80 28 19 -23 105
-64 134 -64 39 0 79 44 70 78 -10 41 -24 52 -66 52 -65 0 -107 66 -75 116 26
38 48 43 209 43 l147 1 0 -124z m-658 72 c14 -21 13 -25 -8 -47 -20 -21 -24
-23 -29 -8 -9 21 2 38 20 30 8 -3 15 0 15 7 0 6 -6 8 -12 4 -7 -4 -10 -4 -6 1
4 4 3 14 -3 22 -7 8 -8 13 -1 13 5 0 16 -10 24 -22z m-36 1 c10 -16 -23 -46
-36 -33 -6 6 -8 18 -4 27 7 19 29 22 40 6z m8 -95 c9 -24 2 -26 -12 -4 -7 11
-8 20 -3 20 5 0 12 -7 15 -16z m136 -14 c0 -16 -92 -100 -109 -100 -9 0 -2 9
16 23 17 12 44 37 59 55 31 35 34 37 34 22z m-139 -80 c5 0 9 5 9 12 0 6 2 9
5 6 3 -3 3 -13 -1 -22 -5 -13 -9 -14 -20 -5 -8 6 -13 19 -13 28 1 13 2 13 6
-1 2 -10 9 -18 14 -18z"/>
<path d="M2420 2505 c-7 -8 -10 -21 -7 -28 3 -8 -1 -14 -8 -14 -8 0 -11 7 -7
16 5 14 3 14 -11 2 -9 -7 -17 -17 -17 -21 0 -15 51 -3 71 16 17 18 18 22 6 32
-11 10 -17 9 -27 -3z"/>
<path d="M2540 2385 c-8 -9 -8 -15 -2 -15 12 0 26 19 19 26 -2 2 -10 -2 -17
-11z"/>
<path d="M1560 2780 c-11 -11 -20 -31 -20 -44 0 -28 -14 -41 -55 -50 -40 -10
-55 -24 -55 -52 0 -29 25 -54 54 -54 27 0 51 -25 60 -63 4 -15 17 -32 30 -38
34 -16 63 3 76 51 8 31 17 41 38 46 44 10 72 33 72 58 0 28 -13 39 -62 55 -36
12 -48 27 -48 61 0 20 -35 50 -57 50 -7 0 -22 -9 -33 -20z m60 -170 l-25 -25
-25 25 -25 25 25 25 25 25 25 -25 25 -25 -25 -25z"/>
<path d="M972 2537 c-33 -15 -37 -48 -13 -129 33 -110 42 -128 66 -134 29 -7
62 10 70 35 6 20 -40 197 -57 217 -13 18 -41 22 -66 11z"/>
<path d="M1236 2508 c-8 -13 -20 -65 -27 -116 -12 -90 -11 -94 9 -115 18 -17
26 -19 49 -11 35 12 50 54 59 163 6 73 5 80 -14 90 -32 17 -60 13 -76 -11z"/>
<path d="M679 2337 c-25 -13 -37 -60 -22 -83 5 -6 50 -35 101 -63 99 -56 120
-58 148 -16 24 36 2 66 -79 111 -111 61 -120 64 -148 51z"/>
<path d="M1145 2045 c-14 -13 -25 -36 -25 -50 0 -33 41 -75 73 -75 40 0 77 36
77 75 0 24 -7 39 -26 54 -35 28 -69 26 -99 -4z"/>
<path d="M563 1919 c-13 -5 -25 -20 -28 -36 -10 -46 -20 -57 -66 -73 -38 -13
-44 -20 -47 -46 -3 -35 9 -49 57 -61 36 -9 43 -17 58 -68 16 -56 103 -40 103
19 0 29 17 44 58 52 40 8 54 25 50 60 -3 28 -13 36 -62 50 -30 9 -38 19 -52
68 -10 33 -39 47 -71 35z m59 -150 l22 -12 -22 -8 c-12 -5 -26 -18 -30 -30 -8
-20 -8 -20 -20 5 -6 14 -18 26 -27 26 -8 0 -15 5 -15 10 0 6 7 10 15 10 9 0
21 12 27 26 11 24 12 25 19 5 5 -11 18 -25 31 -32z"/>
<path d="M2553 1919 c-13 -5 -25 -20 -28 -36 -11 -53 -21 -62 -80 -80 -26 -7
-30 -13 -30 -42 0 -36 5 -41 68 -65 28 -11 37 -21 37 -39 0 -76 90 -83 110 -8
9 35 16 42 50 52 49 15 62 30 58 66 -2 21 -10 30 -33 36 -59 18 -64 23 -81 81
-10 33 -39 47 -71 35z m61 -152 c13 -5 10 -12 -12 -34 l-27 -28 -13 23 c-7 12
-20 22 -30 22 -13 1 -10 6 11 21 15 11 27 28 27 37 1 12 5 9 15 -9 8 -15 21
-29 29 -32z"/>
<path d="M936 1899 c-58 -45 -9 -140 63 -124 43 9 67 55 50 96 -21 52 -68 63
-113 28z"/>
<path d="M780 1595 c-61 -19 -115 -67 -147 -129 l-26 -51 -1 -415 -1 -415 30
-55 c33 -60 96 -114 153 -130 24 -6 312 -10 823 -10 l785 0 52 26 c57 28 96
69 123 129 17 36 19 73 19 395 0 220 -4 370 -11 393 -13 49 -73 115 -124 138
-22 10 -63 19 -91 19 -47 0 -57 -4 -108 -46 -31 -26 -56 -52 -56 -60 0 -24 37
-34 123 -34 83 0 86 -1 111 -31 l26 -31 0 -344 0 -344 -34 -38 -34 -37 -777
-3 c-875 -3 -826 -7 -865 72 -19 40 -20 60 -20 407 0 327 2 368 18 398 32 63
60 75 187 81 99 4 116 8 129 25 21 28 20 61 -4 85 -18 18 -33 20 -127 19 -62
0 -127 -6 -153 -14z"/>
<path d="M837 1292 c-22 -24 -21 -65 1 -85 27 -25 153 -24 175 1 22 24 21 65
-1 85 -27 25 -153 24 -175 -1z"/>
<path d="M1107 1292 c-21 -23 -22 -66 -1 -86 24 -24 155 -22 177 2 22 24 21
65 -1 85 -27 25 -153 24 -175 -1z"/>
<path d="M1380 1290 c-25 -25 -26 -62 -2 -83 14 -13 37 -17 88 -17 74 0 85 4
101 34 12 22 1 65 -20 78 -7 4 -42 8 -79 8 -55 0 -72 -4 -88 -20z"/>
<path d="M1950 1210 c-19 -19 -20 -33 -20 -225 0 -192 1 -206 20 -225 25 -25
62 -26 83 -2 15 16 17 47 17 229 0 191 -2 211 -18 226 -25 23 -58 21 -82 -3z"/>
<path d="M840 1010 c-25 -25 -26 -62 -2 -83 27 -25 153 -24 175 1 22 24 21 65
-1 85 -28 26 -145 24 -172 -3z"/>
<path d="M1107 1012 c-21 -23 -22 -66 -1 -86 24 -24 155 -22 177 2 22 24 21
65 -1 85 -27 25 -153 24 -175 -1z"/>
<path d="M1377 1012 c-22 -24 -21 -65 1 -85 27 -25 153 -24 175 1 22 24 21 65
-1 85 -27 25 -153 24 -175 -1z"/>
<path d="M1653 1022 c-22 -14 -32 -57 -19 -83 10 -22 19 -24 91 -27 72 -3 82
-1 98 19 22 28 22 54 -3 79 -16 16 -33 20 -87 20 -38 0 -73 -4 -80 -8z"/>
<path d="M2166 1015 c-19 -19 -21 -76 -4 -93 13 -13 156 -17 174 -4 6 4 17 18
24 31 10 20 9 27 -8 50 -17 23 -26 26 -94 29 -59 2 -79 -1 -92 -13z"/>
<path d="M860 749 c-44 -18 -54 -63 -21 -94 19 -16 54 -17 473 -17 249 1 461
1 470 2 43 1 65 73 31 101 -13 11 -103 14 -472 16 -288 1 -465 -2 -481 -8z"/>
</g>
</svg>
